# xmcd CD database file
#
# Track frame offsets:
#	150
#	17610
#	36610
#
# Disc length: 721 seconds
#
# Revision: 3
# Processed by: cddbd v1.5.1PL0 Copyright (c) Steve Scherf et al.
# Submitted via: CDex 1.51
#
DISCID=1f02cf03
DTITLE=The Gospellers - Boo〜おなかが空くほど笑ってみたい〜
DYEAR=1998
DGENRE=JPop
TTITLE0=Boo〜おなかが空くほど笑ってみたい〜
TTITLE1=愛の歌
TTITLE2=Boo〜おなかが空くほど笑ってみたい（オリジナルカラオケ）
EXTD=YEAR: 1998.06.20
EXTT0=
EXTT1=
EXTT2=
PLAYORDER=
